<svg width="80" height="80" viewBox="0 0 80 80" fill="none" xmlns="http://www.w3.org/2000/svg">
  <!-- Icône remorque food truck style Block - version parfaitement centrée -->
  
  <!-- Fond circulaire -->
  <circle cx="40" cy="40" r="38" fill="#243127" stroke="#FFB404" stroke-width="2"/>
  
  <!-- Remorque food truck parfaitement centrée -->
  <g transform="translate(40, 42)" stroke="#FFB404" stroke-width="2" fill="none" stroke-linecap="round" stroke-linejoin="round">
    
    <!-- Corps principal de la remorque -->
    <rect x="-20" y="-10" width="36" height="16" rx="2"/>
    
    <!-- Toit avec pente -->
    <path d="M -22 -10 L -18 -16 L 14 -16 L 18 -10"/>
    
    <!-- Fenêtre de service (bien espacée) -->
    <rect x="-15" y="-6" width="12" height="8" rx="1"/>
    
    <!-- Volet ouvert de la fenêtre -->
    <path d="M -15 -6 L -20 -12 L -8 -12 L -3 -6"/>
    <line x1="-17" y1="-9" x2="-17" y2="-12"/>
    <line x1="-6" y1="-9" x2="-6" y2="-12"/>
    
    <!-- Porte arrière (bien espacée du mur) -->
    <rect x="8" y="-4" width="6" height="10" rx="1"/>
    <circle cx="12" cy="1" r="0.5" fill="#FFB404"/>
    
    <!-- Grille d'aération côté -->
    <line x1="-1" y1="-6" x2="-1" y2="2"/>
    <line x1="1" y1="-6" x2="1" y2="2"/>
    <line x1="3" y1="-6" x2="3" y2="2"/>
    
    <!-- Roues parfaitement alignées -->
    <circle cx="-10" cy="12" r="4"/>
    <circle cx="10" cy="12" r="4"/>
    
    <!-- Centres des roues -->
    <circle cx="-10" cy="12" r="1.5"/>
    <circle cx="10" cy="12" r="1.5"/>
    
    <!-- Timon de remorque -->
    <line x1="-20" y1="-2" x2="-26" y2="-2"/>
    <circle cx="-28" cy="-2" r="1.5"/>
    
    <!-- Enseigne Block -->
    <rect x="-8" y="-18" width="14" height="3" rx="1" fill="#EF3D1D"/>
    
    <!-- Fumée de cuisine -->
    <path d="M -4 -16 Q -2 -20 -4 -22" stroke-width="1.2" opacity="0.8"/>
    <path d="M 2 -16 Q 4 -20 2 -22" stroke-width="1.2" opacity="0.8"/>
    
    <!-- Support de roues -->
    <line x1="-10" y1="6" x2="-10" y2="8"/>
    <line x1="10" y1="6" x2="10" y2="8"/>
    
  </g>
  
</svg>