<svg width="80" height="80" viewBox="0 0 80 80" fill="none" xmlns="http://www.w3.org/2000/svg">
  <!-- Icône restaurant style Block - version parfaitement centrée -->
  
  <!-- Fond circulaire -->
  <circle cx="40" cy="40" r="38" fill="#243127" stroke="#FFB404" stroke-width="2"/>
  
  <!-- Restaurant parfaitement centré -->
  <g transform="translate(40, 42)" stroke="#FFB404" stroke-width="2" fill="none" stroke-linecap="round" stroke-linejoin="round">
    
    <!-- Bâtiment principal -->
    <rect x="-18" y="-6" width="36" height="22" rx="2"/>
    
    <!-- Toit triangulaire -->
    <path d="M -20 -6 L 0 -18 L 20 -6"/>
    
    <!-- Porte d'entrée (bien centrée) -->
    <rect x="-3" y="6" width="6" height="10" rx="1"/>
    <circle cx="1" cy="11" r="0.5" fill="#FFB404"/>
    
    <!-- Fenêtres symétriques (bien espacées) -->
    <rect x="-14" y="-2" width="6" height="6" rx="0.5"/>
    <rect x="8" y="-2" width="6" height="6" rx="0.5"/>
    
    <!-- Croix des fenêtres -->
    <line x1="-11" y1="-2" x2="-11" y2="4"/>
    <line x1="-14" y1="1" x2="-8" y2="1"/>
    <line x1="11" y1="-2" x2="11" y2="4"/>
    <line x1="8" y1="1" x2="14" y2="1"/>
    
    <!-- Cheminée (bien positionnée) -->
    <rect x="12" y="-16" width="3" height="10"/>
    
    <!-- Fumée -->
    <path d="M 13.5 -16 Q 15 -19 13.5 -21" stroke-width="1.2" opacity="0.8"/>
    <path d="M 13.5 -21 Q 12 -23 13.5 -25" stroke-width="1" opacity="0.6"/>
    
    <!-- Enseigne restaurant -->
    <rect x="-8" y="-12" width="16" height="3" rx="1" fill="#EF3D1D"/>
    
    <!-- Auvent au-dessus de la porte -->
    <path d="M -6 4 Q 0 2 6 4" stroke-width="1.5"/>
    <line x1="-4" y1="4" x2="-4" y2="6"/>
    <line x1="4" y1="4" x2="4" y2="6"/>
    
    <!-- Détails décoratifs -->
    <circle cx="-16" cy="8" r="0.8" fill="#FFB404"/>
    <circle cx="16" cy="8" r="0.8" fill="#FFB404"/>
    
  </g>
  
</svg>